{
  "accessors": [
    {
      "bufferView": 2,
      "componentType": 5126,
      "count": 33190,
      "max": [
        347.3515625,
        158.56219482421875,
        179.03819274902344
      ],
      "min": [
        -294.3828125,
        -432.750244140625,
        -255.37109375
      ],
      "type": "VEC3"
    },
    {
      "bufferView": 2,
      "byteOffset": 398280,
      "componentType": 5126,
      "count": 33190,
      "max": [
        1.0,
        1.0,
        1.0
      ],
      "min": [
        -1.0,
        -1.0,
        -1.0
      ],
      "type": "VEC3"
    },
    {
      "bufferView": 1,
      "componentType": 5126,
      "count": 33190,
      "max": [
        99.53334045410156,
        49.766658782958984
      ],
      "min": [
        0.0,
        -1.1865296073665377e-05
      ],
      "type": "VEC2"
    },
    {
      "bufferView": 0,
      "componentType": 5125,
      "count": 187200,
      "type": "SCALAR"
    },
    {
      "bufferView": 2,
      "byteOffset": 796560,
      "componentType": 5126,
      "count": 23408,
      "max": [
        276.5863342285156,
        -13.208191871643066,
        117.49380493164063
      ],
      "min": [
        -171.50892639160156,
        -873.052001953125,
        -119.88375854492188
      ],
      "type": "VEC3"
    },
    {
      "bufferView": 2,
      "byteOffset": 1077456,
      "componentType": 5126,
      "count": 23408,
      "max": [
        0.9999855160713196,
        0.9999990463256836,
        0.9999170899391174
      ],
      "min": [
        -0.9999691843986511,
        -1.0,
        -0.9999988079071045
      ],
      "type": "VEC3"
    },
    {
      "bufferView": 1,
      "byteOffset": 265520,
      "componentType": 5126,
      "count": 23408,
      "max": [
        0.9606947898864746,
        0.8991626501083374
      ],
      "min": [
        0.0393005907535553,
        0.03930506110191345
      ],
      "type": "VEC2"
    },
    {
      "bufferView": 0,
      "byteOffset": 748800,
      "componentType": 5125,
      "count": 114696,
      "type": "SCALAR"
    },
    {
      "bufferView": 2,
      "byteOffset": 1358352,
      "componentType": 5126,
      "count": 3128,
      "max": [
        380.0,
        380.0,
        40.0
      ],
      "min": [
        -380.0,
        -380.0,
        0.0
      ],
      "type": "VEC3"
    },
    {
      "bufferView": 2,
      "byteOffset": 1395888,
      "componentType": 5126,
      "count": 3128,
      "max": [
        0.9996545314788818,
        0.9996545314788818,
        0.9996441006660461
      ],
      "min": [
        -0.9996545314788818,
        -0.9996545314788818,
        -0.9996441006660461
      ],
      "type": "VEC3"
    },
    {
      "bufferView": 1,
      "byteOffset": 452784,
      "componentType": 5126,
      "count": 3128,
      "max": [
        1.1809865236282349,
        1.2911067008972168
      ],
      "min": [
        -0.18098664283752441,
        0.5117509961128235
      ],
      "type": "VEC2"
    },
    {
      "bufferView": 0,
      "byteOffset": 1207584,
      "componentType": 5125,
      "count": 16884,
      "type": "SCALAR"
    }
  ],
  "asset": {
    "extras": {
      "author": "Jack John (https://sketchfab.com/li82545683)",
      "license": "CC-BY-4.0 (http://creativecommons.org/licenses/by/4.0/)",
      "source": "https://sketchfab.com/3d-models/floor-lamp-762ef4c5a0fc4ce88156a51af20aecb1",
      "title": "floor lamp"
    },
    "generator": "Sketchfab-14.38.0",
    "version": "2.0"
  },
  "bufferViews": [
    {
      "buffer": 0,
      "byteLength": 1275120,
      "name": "floatBufferViews",
      "target": 34963
    },
    {
      "buffer": 0,
      "byteLength": 477808,
      "byteOffset": 1275120,
      "byteStride": 8,
      "name": "floatBufferViews",
      "target": 34962
    },
    {
      "buffer": 0,
      "byteLength": 1433424,
      "byteOffset": 1752928,
      "byteStride": 12,
      "name": "floatBufferViews",
      "target": 34962
    }
  ],
  "buffers": [
    {
      "byteLength": 3186352,
      "uri": "scene.bin"
    }
  ],
  "materials": [
    {
      "doubleSided": true,
      "emissiveFactor": [
        1.0,
        1.0,
        1.0
      ],
      "name": "Mat3d66-1144990-4-4936",
      "pbrMetallicRoughness": {
        "metallicFactor": 0.0,
        "roughnessFactor": 0.6
      }
    },
    {
      "doubleSided": true,
      "name": "material",
      "pbrMetallicRoughness": {
        "baseColorFactor": [
          0.008329261933796989,
          0.008329261933796989,
          0.008329261933796989,
          1.0
        ],
        "metallicFactor": 0.4444444444444444,
        "roughnessFactor": 0.3218390804597701
      }
    }
  ],
  "meshes": [
    {
      "name": "34_Mat3d66-1144990-4-4936_0",
      "primitives": [
        {
          "attributes": {
            "NORMAL": 1,
            "POSITION": 0,
            "TEXCOORD_0": 2
          },
          "indices": 3,
          "material": 0,
          "mode": 4
        }
      ]
    },
    {
      "name": "25_019_0",
      "primitives": [
        {
          "attributes": {
            "NORMAL": 5,
            "POSITION": 4,
            "TEXCOORD_0": 6
          },
          "indices": 7,
          "material": 1,
          "mode": 4
        }
      ]
    },
    {
      "name": "2_019_0",
      "primitives": [
        {
          "attributes": {
            "NORMAL": 9,
            "POSITION": 8,
            "TEXCOORD_0": 10
          },
          "indices": 11,
          "material": 1,
          "mode": 4
        }
      ]
    }
  ],
  "nodes": [
    {
      "children": [
        1
      ],
      "matrix": [
        1.0209745168685913,
        0.0,
        0.0,
        0.0,
        0.0,
        2.2670188323661107e-16,
        -1.0209745168685913,
        0.0,
        0.0,
        1.0209745168685913,
        2.2670188323661107e-16,
        0.0,
        0.0,
        0.0,
        0.0,
        1.0
      ],
      "name": "Sketchfab_model"
    },
    {
      "children": [
        2
      ],
      "matrix": [
        0.0010000000474974513,
        0.0,
        0.0,
        0.0,
        0.0,
        0.0,
        0.0010000000474974513,
        0.0,
        0.0,
        -0.0010000000474974513,
        0.0,
        0.0,
        0.0,
        0.0,
        0.0,
        1.0
      ],
      "name": "35598db83e5f4eeba64ed75d235e2e90.fbx"
    },
    {
      "children": [
        3
      ],
      "name": "RootNode"
    },
    {
      "children": [
        4,
        6,
        8
      ],
      "matrix": [
        1.0,
        0.0,
        0.0,
        0.0,
        0.0,
        2.220446049250313e-16,
        -1.0,
        0.0,
        0.0,
        1.0,
        2.220446049250313e-16,
        0.0,
        -13794.298828125,
        787.830810546875,
        575.19677734375,
        1.0
      ],
      "name": "Group032"
    },
    {
      "children": [
        5
      ],
      "matrix": [
        0.7310046220749421,
        -0.2220104118645929,
        -1.0245691242930817e-07,
        0.0,
        3.539956251181742e-08,
        -2.3601218466002924e-07,
        0.7639738917350397,
        0.0,
        -0.22201041186461373,
        -0.7310046220749112,
        -2.1553999182331476e-07,
        0.0,
        60.712890625,
        -59.154296875,
        686.844482421875,
        1.0
      ],
      "name": "34"
    },
    {
      "mesh": 0,
      "name": "34_Mat3d66-1144990-4-4936_0"
    },
    {
      "children": [
        7
      ],
      "matrix": [
        1.5052885628484134,
        -0.45716233885319046,
        4.366447894778773e-17,
        0.0,
        -2.412701923143563e-07,
        -7.944251530145238e-07,
        1.7858306169507958,
        0.0,
        -0.4861010228453526,
        -1.6005743428331796,
        -7.776875315375707e-07,
        0.0,
        -98.818359375,
        15.146484375,
        782.02587890625,
        1.0
      ],
      "name": "25"
    },
    {
      "mesh": 1,
      "name": "25_019_0"
    },
    {
      "children": [
        9
      ],
      "matrix": [
        0.22627102469655183,
        0.745033831921009,
        6.162975822039159e-33,
        0.0,
        -0.745033831921009,
        0.22627102469655183,
        1.54074395550979e-33,
        0.0,
        -3.16703119612376e-34,
        -6.344749774139107e-33,
        0.7786358594894409,
        0.0,
        -21.501953125,
        0.0,
        -807.9818115234375,
        1.0
      ],
      "name": "2"
    },
    {
      "mesh": 2,
      "name": "2_019_0"
    }
  ],
  "scene": 0,
  "scenes": [
    {
      "name": "Sketchfab_Scene",
      "nodes": [
        0
      ]
    }
  ]
}
