{
  "accessors": [
    {
      "bufferView": 2,
      "componentType": 5126,
      "count": 26141,
      "max": [
        0.3961378335952759,
        1.2001636028289795,
        0.4089799225330353
      ],
      "min": [
        -0.32140517234802246,
        0.0,
        -0.3711167871952057
      ],
      "type": "VEC3"
    },
    {
      "bufferView": 2,
      "byteOffset": 313692,
      "componentType": 5126,
      "count": 26141,
      "max": [
        0.9999653100967407,
        1.0,
        0.9999334216117859
      ],
      "min": [
        -0.999976634979248,
        -1.0,
        -0.99993896484375
      ],
      "type": "VEC3"
    },
    {
      "bufferView": 3,
      "componentType": 5126,
      "count": 26141,
      "max": [
        1.0,
        1.0,
        0.9999987483024597,
        1.0
      ],
      "min": [
        -1.0,
        -1.0,
        -1.0,
        -1.0
      ],
      "type": "VEC4"
    },
    {
      "bufferView": 1,
      "componentType": 5126,
      "count": 26141,
      "max": [
        0.9980000257492065,
        0.9980000257492065
      ],
      "min": [
        0.0020000000949949026,
        0.002200007438659668
      ],
      "type": "VEC2"
    },
    {
      "bufferView": 1,
      "byteOffset": 209128,
      "componentType": 5126,
      "count": 26141,
      "max": [
        0.9980000257492065,
        0.9980000257492065
      ],
      "min": [
        0.0020000000949949026,
        0.002200007438659668
      ],
      "type": "VEC2"
    },
    {
      "bufferView": 1,
      "byteOffset": 418256,
      "componentType": 5126,
      "count": 26141,
      "max": [
        0.9980000257492065,
        0.9980000257492065
      ],
      "min": [
        0.0020000000949949026,
        0.002200007438659668
      ],
      "type": "VEC2"
    },
    {
      "bufferView": 1,
      "byteOffset": 627384,
      "componentType": 5126,
      "count": 26141,
      "max": [
        0.9980000257492065,
        0.9980000257492065
      ],
      "min": [
        0.0020000000949949026,
        0.002200007438659668
      ],
      "type": "VEC2"
    },
    {
      "bufferView": 1,
      "byteOffset": 836512,
      "componentType": 5126,
      "count": 26141,
      "max": [
        0.9980000257492065,
        0.9980000257492065
      ],
      "min": [
        0.0020000000949949026,
        0.002200007438659668
      ],
      "type": "VEC2"
    },
    {
      "bufferView": 0,
      "componentType": 5125,
      "count": 127638,
      "type": "SCALAR"
    }
  ],
  "asset": {
    "extras": {
      "author": "Chenchanchong (https://sketchfab.com/Chenchanchong)",
      "license": "CC-BY-4.0 (http://creativecommons.org/licenses/by/4.0/)",
      "source": "https://sketchfab.com/3d-models/office-chair-gaming-chair-0286d47997364d4983cbb3b9f19507d6",
      "title": "Office chair gaming chair"
    },
    "generator": "Sketchfab-16.75.0",
    "version": "2.0"
  },
  "bufferViews": [
    {
      "buffer": 0,
      "byteLength": 510552,
      "name": "floatBufferViews",
      "target": 34963
    },
    {
      "buffer": 0,
      "byteLength": 1045640,
      "byteOffset": 510552,
      "byteStride": 8,
      "name": "floatBufferViews",
      "target": 34962
    },
    {
      "buffer": 0,
      "byteLength": 627384,
      "byteOffset": 1556192,
      "byteStride": 12,
      "name": "floatBufferViews",
      "target": 34962
    },
    {
      "buffer": 0,
      "byteLength": 418256,
      "byteOffset": 2183576,
      "byteStride": 16,
      "name": "floatBufferViews",
      "target": 34962
    }
  ],
  "buffers": [
    {
      "byteLength": 2601832,
      "uri": "scene.bin"
    }
  ],
  "images": [
    {
      "uri": "textures/Chair1_101___Default_baseColor.png"
    },
    {
      "uri": "textures/Chair1_101___Default_metallicRoughness.png"
    },
    {
      "uri": "textures/Chair1_101___Default_normal.png"
    }
  ],
  "materials": [
    {
      "name": "Chair1_101___Default",
      "normalTexture": {
        "index": 2
      },
      "occlusionTexture": {
        "index": 1
      },
      "pbrMetallicRoughness": {
        "baseColorTexture": {
          "index": 0
        },
        "metallicRoughnessTexture": {
          "index": 1
        }
      }
    }
  ],
  "meshes": [
    {
      "name": "Object_0",
      "primitives": [
        {
          "attributes": {
            "NORMAL": 1,
            "POSITION": 0,
            "TANGENT": 2,
            "TEXCOORD_0": 3,
            "TEXCOORD_1": 4,
            "TEXCOORD_2": 5,
            "TEXCOORD_3": 6,
            "TEXCOORD_4": 7
          },
          "indices": 8,
          "material": 0,
          "mode": 4
        }
      ]
    }
  ],
  "nodes": [
    {
      "children": [
        1
      ],
      "matrix": [
        1.0,
        0.0,
        0.0,
        0.0,
        0.0,
        2.220446049250313e-16,
        -1.0,
        0.0,
        0.0,
        1.0,
        2.220446049250313e-16,
        0.0,
        0.0,
        0.0,
        0.0,
        1.0
      ],
      "name": "Sketchfab_model"
    },
    {
      "children": [
        2
      ],
      "name": "root"
    },
    {
      "children": [
        3
      ],
      "matrix": [
        1.0,
        0.0,
        0.0,
        0.0,
        0.0,
        2.220446049250313e-16,
        1.0,
        0.0,
        0.0,
        -1.0,
        2.220446049250313e-16,
        0.0,
        0.0,
        0.0,
        0.0,
        1.0
      ],
      "name": "GLTF_SceneRootNode"
    },
    {
      "children": [
        4
      ],
      "name": "chair_47_01_0"
    },
    {
      "mesh": 0,
      "name": "Object_4"
    }
  ],
  "samplers": [
    {
      "magFilter": 9729,
      "minFilter": 9987,
      "wrapS": 10497,
      "wrapT": 10497
    }
  ],
  "scene": 0,
  "scenes": [
    {
      "name": "Sketchfab_Scene",
      "nodes": [
        0
      ]
    }
  ],
  "textures": [
    {
      "sampler": 0,
      "source": 0
    },
    {
      "sampler": 0,
      "source": 1
    },
    {
      "sampler": 0,
      "source": 2
    }
  ]
}
